<?xml version="1.0" encoding="UTF-8" standalone="no" ?>
<!DOCTYPE svg PUBLIC "-//W3C//DTD SVG 1.1//EN" "http://www.w3.org/Graphics/SVG/1.1/DTD/svg11.dtd">
<svg xmlns="http://www.w3.org/2000/svg" xmlns:xlink="http://www.w3.org/1999/xlink" version="1.1" width="100" height="100" viewBox="0 0 100 100" xml:space="preserve">
<desc>Created with Fabric.js 3.6.3</desc>
<defs>
</defs>
<g transform="matrix(0.63 0 0 0.63 50.24 50.4)"  >
<g style=""   >
		<g transform="matrix(0.75 0 0 0.75 4.55 0.46)"  >
<path style="stroke: none; stroke-width: 0; stroke-dasharray: none; stroke-linecap: butt; stroke-dashoffset: 0; stroke-linejoin: miter; stroke-miterlimit: 4; fill: rgb(0,65,101); fill-rule: nonzero; opacity: 1;"  transform=" translate(-77.07, 26.94)" d="m 39.970078 -76.162841 l 74.137192 39.804199 l 0.0745 18.641088 l -74.220948 40.007848 l -0.0012 -24.62263 l 47.691879 -24.313302 l -0.0131 -0.553833 l -47.639266 -24.302215 z" stroke-linecap="round" />
</g>
		<g transform="matrix(0.75 0 0 0.75 0 0)"  >
<path style="stroke: none; stroke-width: 1; stroke-dasharray: none; stroke-linecap: butt; stroke-dashoffset: 0; stroke-linejoin: miter; stroke-miterlimit: 4; fill: rgb(0,65,101); fill-rule: nonzero; opacity: 1;"  transform=" translate(-71.38, 27.19)" d="m 71.380751 -131.85322 l -90.640005 52.329998 V 25.146774 L 71.380751 77.476771 L 162.01075 25.146774 V -79.523222 Z m 66.899999 143.279994 l -66.899999 38.63 l -66.900005 -38.63 v -77.279996 l 66.900005 -38.619998 l 66.899999 38.619998 z" stroke-linecap="round" />
</g>
</g>
</g>
</svg>